<!DOCTYPE svg PUBLIC "-//W3C//DTD SVG 20010904//EN" "http://www.w3.org/TR/2001/REC-SVG-20010904/DTD/svg10.dtd">
<svg version="1.0" xmlns="http://www.w3.org/2000/svg" width="512px" height="512px" viewBox="0 0 5120 5120" preserveAspectRatio="xMidYMid meet">
<g id="layer101" fill="#000000" stroke="none">
 <path d="M1300 4124 c-45 -20 -77 -50 -101 -96 -18 -36 -19 -81 -19 -1468 0 -1387 1 -1432 19 -1468 24 -47 56 -77 103 -97 31 -12 93 -15 375 -15 307 0 342 2 378 19 48 22 79 54 100 103 13 33 15 198 15 1460 0 1362 -1 1425 -19 1463 -22 48 -54 79 -103 100 -55 22 -696 22 -748 -1z"/>
 <path d="M3065 4121 c-48 -22 -79 -54 -100 -103 -13 -33 -15 -198 -15 -1458 0 -1260 2 -1425 15 -1458 21 -49 52 -81 100 -103 36 -17 71 -19 378 -19 282 0 344 3 375 15 47 20 79 50 103 97 18 36 19 81 19 1468 0 1387 -1 1432 -19 1468 -24 47 -56 77 -103 97 -31 12 -93 15 -375 15 -307 0 -342 -2 -378 -19z"/>
 </g>

</svg>